<svg version="1.1" id="Layer_1" xmlns="http://www.w3.org/2000/svg" xmlns:xlink="http://www.w3.org/1999/xlink" x="0px" y="0px"
	 width="32px" height="32px" viewBox="0 0 1024 1024" enable-background="new 0 0 1024 1024" xml:space="preserve">
<path fill="#000000" opacity="1.000000" stroke="none" 
	d="
M252.812073,324.721863 
	C278.563629,308.718719 304.292206,309.188782 330.200897,323.311005 
	C335.705078,326.311218 340.007996,330.812225 343.881775,335.606476 
	C345.830780,338.018585 347.550659,338.228882 350.278900,337.348389 
	C375.323608,329.266205 402.073547,342.638336 411.418457,365.559082 
	C412.874298,369.129852 413.995300,372.764374 414.383911,376.608887 
	C414.783661,380.563019 416.395996,382.487671 420.922485,382.970123 
	C436.678406,384.649323 448.608826,394.717285 450.769379,408.824890 
	C452.716217,421.536865 447.602692,432.461487 438.726044,441.346283 
	C422.465149,457.622223 402.889832,464.317169 379.971161,460.493317 
	C378.351318,460.223053 376.683380,460.241150 374.589691,460.093597 
	C375.329651,463.923492 377.396057,466.620575 379.689941,469.114563 
	C390.538666,480.909668 403.754822,488.951477 418.941711,493.953583 
	C422.599823,495.158417 424.111664,494.189911 424.776184,490.486969 
	C427.416687,475.773926 434.406738,463.317047 444.761749,452.638275 
	C455.312225,441.758026 466.762787,431.749023 476.386322,419.971191 
	C486.821869,407.199585 495.393768,393.454742 499.005829,377.077179 
	C501.246338,366.918365 500.198639,364.523621 491.110901,360.091949 
	C477.064423,353.242126 465.622955,343.759949 459.442932,328.933655 
	C458.331696,326.267761 456.817963,325.369995 453.652679,325.890503 
	C444.189667,327.446686 435.409729,324.997803 427.598114,319.625793 
	C424.826752,317.719971 422.477753,317.197723 419.318237,318.277954 
	C393.118835,327.235382 367.088654,305.984680 363.488861,281.545074 
	C359.811890,256.581055 376.747742,231.454224 402.793427,226.097534 
	C402.956146,226.064056 403.116547,226.017807 403.276520,225.972107 
	C406.731201,224.985352 411.147339,227.355331 413.703156,224.077118 
	C415.963043,221.178421 414.879761,217.019135 415.561096,213.444733 
	C420.308716,188.537567 446.200653,171.654419 470.847229,177.856110 
	C475.228058,178.958435 478.131165,178.367386 481.397278,174.980255 
	C500.406586,155.266586 529.401855,150.354935 555.606140,161.950775 
	C572.993225,169.644867 586.303101,181.808502 595.223083,198.529648 
	C597.460754,202.724365 600.003235,204.445618 604.591492,203.734390 
	C627.033142,200.255676 650.947449,217.448410 656.131653,240.153412 
	C657.876282,247.793854 660.840149,250.953918 668.567566,252.953354 
	C684.736267,257.136902 695.097290,268.409576 697.817627,285.008209 
	C700.528015,301.546082 694.406311,315.581970 681.838684,326.450836 
	C664.511475,341.436005 645.266724,342.400055 625.032532,332.995483 
	C622.426697,331.784332 620.376648,330.616272 618.081482,333.478577 
	C600.656860,355.208344 577.475952,368.264008 551.381592,376.263000 
	C541.490662,379.294952 534.554688,385.133759 528.358521,392.764099 
	C521.068542,401.741516 515.518372,411.804565 509.752777,421.739563 
	C500.589233,437.529724 488.389374,451.064545 477.396576,465.497589 
	C470.257324,474.871063 464.290588,484.654968 464.180237,497.113983 
	C464.079498,508.485840 468.636047,517.816406 475.734131,526.100830 
	C487.394043,539.709534 502.571960,548.315186 518.665222,555.530762 
	C526.271667,558.941223 534.070984,561.843628 541.979919,564.457458 
	C544.022095,565.132385 546.010620,565.704529 548.293762,565.004395 
	C560.248596,561.338684 572.032532,557.432434 582.504272,550.220764 
	C593.954712,542.335083 592.958130,532.989319 586.916870,522.441040 
	C585.635193,520.203186 583.908447,520.505005 581.769592,520.969604 
	C567.075867,524.161438 552.350281,524.705261 537.858582,520.093994 
	C523.039734,515.378662 510.842560,507.357086 506.899445,491.149994 
	C502.609924,473.519196 511.572144,454.546936 528.396423,445.874969 
	C533.577637,443.204376 536.100342,440.228546 537.447510,434.324310 
	C541.483826,416.634155 559.270935,402.114319 577.991821,399.739838 
	C582.641968,399.149994 587.212219,398.686981 591.873901,399.630798 
	C595.630615,400.391357 598.116455,398.900482 600.709900,395.760956 
	C613.545837,380.222412 630.032715,370.742249 650.212402,368.724915 
	C674.496521,366.297241 694.612549,374.534088 710.166504,393.566589 
	C712.370117,396.263000 713.077454,399.945160 716.087708,402.287628 
	C735.224854,393.120758 753.339111,395.454681 770.022217,408.009766 
	C782.990906,417.769531 789.419067,431.440613 791.016296,447.389069 
	C791.333435,450.556152 792.399048,451.404480 795.475037,451.844055 
	C819.977539,455.345825 837.470154,476.320770 835.099609,500.611969 
	C833.398682,518.042175 824.101807,531.228149 807.901855,538.572876 
	C792.162292,545.708862 777.376282,543.066833 763.910278,532.537048 
	C762.120422,531.137451 760.730286,530.424744 758.657532,531.944824 
	C738.257019,546.906006 717.116028,544.627136 696.046448,533.907166 
	C690.049072,530.855713 685.481384,531.131775 680.621094,535.339417 
	C663.526611,550.138550 643.151123,558.708618 622.102234,565.958923 
	C606.513855,571.328369 590.856750,576.505859 575.728760,583.119568 
	C573.917847,583.911255 571.892334,584.341187 570.722229,586.823730 
	C575.718567,592.148499 580.496033,597.830444 584.463745,604.214966 
	C593.872986,619.355408 594.957703,635.761353 592.721619,652.813843 
	C591.470642,662.353394 589.213745,671.766602 589.242737,681.468262 
	C589.299255,700.374146 596.077820,708.465271 614.670654,711.667847 
	C630.908752,714.464966 647.281738,715.817322 663.717285,716.952698 
	C678.877197,718.000000 694.003967,717.685059 709.150513,717.697327 
	C711.464050,717.699219 713.824341,717.858643 716.173523,715.867615 
	C714.246277,713.453674 711.442322,712.969116 708.867737,712.272156 
	C692.139832,707.743347 675.016724,705.364746 657.860718,703.302246 
	C639.565308,701.102722 621.227844,699.253723 602.911804,697.223877 
	C601.935669,697.115723 600.964600,696.816467 600.031799,696.489807 
	C596.927917,695.402832 593.763550,694.019653 594.303345,690.042419 
	C594.825684,686.193298 598.304016,685.129822 601.439758,684.974182 
	C608.255066,684.635742 615.122559,684.453369 621.923950,684.896118 
	C642.314087,686.223328 662.769165,686.802612 683.034485,689.724854 
	C698.838074,692.003723 714.690491,694.099609 729.795715,699.618469 
	C737.267151,702.348267 744.336914,705.625183 746.737427,714.366882 
	C748.005615,718.984802 746.924438,723.375610 745.660217,727.618896 
	C730.337769,779.047119 700.820068,819.351624 653.032593,845.239258 
	C652.153687,845.715454 651.304138,846.263184 650.386292,846.647034 
	C645.516663,848.683533 642.895935,851.012390 644.899353,857.393127 
	C646.820801,863.512573 642.417175,868.165955 637.155640,871.109253 
	C629.209106,875.554565 620.377930,877.520691 611.529785,879.104065 
	C592.694580,882.474854 573.692078,884.231506 554.581726,885.455566 
	C535.916138,886.651306 517.256409,886.635742 498.641022,886.082153 
	C469.885315,885.227051 441.189972,882.951965 413.246643,875.303223 
	C409.733337,874.341553 406.219421,873.120605 402.978210,871.481262 
	C396.398071,868.152954 393.486023,862.485962 395.136536,855.352661 
	C396.048615,851.410645 394.449432,849.954163 391.407745,848.492554 
	C340.239166,823.903442 308.281738,783.237061 292.302490,729.409058 
	C289.628723,720.402100 288.529785,711.155273 297.909790,704.613831 
	C302.909180,701.127258 308.615662,699.261292 314.423431,697.708008 
	C332.627472,692.839355 351.240967,690.561157 369.940918,688.588013 
	C393.625153,686.088867 417.352814,684.939270 441.150177,684.760315 
	C444.355042,684.736206 447.447540,685.273071 450.555908,685.810120 
	C453.423340,686.305542 455.792328,687.737061 455.647522,690.951050 
	C455.510345,693.995972 453.318939,695.706848 450.391266,696.094727 
	C444.300507,696.901733 438.197174,697.640381 432.082184,698.233643 
	C400.168701,701.330017 368.133148,703.487427 336.704803,710.342407 
	C330.469910,711.702271 324.111023,712.856812 318.328369,716.152283 
	C328.169830,717.987183 338.006256,718.943726 347.937500,718.517395 
	C359.907257,718.003601 371.885406,717.552246 383.833710,716.704285 
	C401.734253,715.433899 419.646271,714.063843 437.126587,709.611389 
	C448.762665,706.647461 459.135651,701.246826 468.432800,693.588623 
	C482.476013,682.020935 495.818909,669.753235 507.602783,655.858887 
	C510.637970,652.280090 512.971069,648.231750 514.890747,643.958984 
	C519.609985,633.454590 517.794128,622.839905 509.896851,614.428833 
	C503.556091,607.675537 495.924225,602.594604 488.109131,597.794678 
	C470.730377,587.120789 453.940918,575.759460 440.951538,559.651917 
	C436.112640,553.651367 431.494629,547.385681 428.765839,540.248718 
	C422.073730,522.745850 408.338135,515.226074 391.096191,512.255859 
	C380.607025,510.448944 369.851166,511.527344 359.369507,509.272705 
	C336.174103,504.283295 315.202423,495.432526 300.092163,476.073853 
	C298.899384,474.545807 297.712799,473.519440 295.520142,473.759064 
	C282.167480,475.218323 270.617950,470.654541 260.315033,462.598297 
	C257.560059,460.444061 255.555862,460.089020 252.347763,461.848694 
	C219.167908,480.047791 184.139572,457.527649 179.262360,427.014099 
	C174.509171,397.276520 195.721710,369.886597 225.334274,367.881378 
	C229.406677,367.605652 230.745117,366.149933 231.181519,362.366119 
	C232.965668,346.896881 239.691650,334.150421 252.812073,324.721863 
M344.795013,741.073730 
	C333.621643,738.887085 322.448242,736.700500 310.899536,734.440430 
	C311.189545,739.461121 312.837952,743.619873 314.429962,747.745667 
	C330.671722,789.837036 361.007721,818.044067 401.928986,835.332581 
	C436.847839,850.085266 473.919525,853.660828 511.337097,854.704163 
	C526.315735,855.121826 541.250671,853.917664 556.183105,852.832886 
	C578.322937,851.224487 600.082458,847.664246 621.235962,840.754150 
	C665.677063,826.236755 699.430176,799.319153 719.189209,756.240173 
	C722.276672,749.508911 725.583984,742.774475 726.247437,734.800537 
	C725.088135,734.905701 724.289368,734.895691 723.527893,735.059204 
	C699.460083,740.227478 675.179016,743.873901 650.698608,746.597961 
	C623.569458,749.616699 596.363037,751.557678 569.135315,752.032288 
	C518.048950,752.922974 466.936188,752.887207 415.923309,749.153931 
	C404.669067,748.330322 393.455414,746.909424 382.238739,745.626526 
	C370.039612,744.231323 357.858734,742.676392 344.795013,741.073730 
M526.106018,363.700989 
	C536.219604,363.354156 545.721497,360.347504 555.085327,356.874268 
	C570.791809,351.048431 585.622437,343.677612 597.685242,331.686737 
	C599.268250,330.113098 601.319458,328.690826 601.185181,324.863220 
	C582.648071,332.297455 565.019958,329.852173 547.797913,319.647186 
	C542.748047,336.744659 533.756836,350.456116 521.822266,362.329102 
	C522.858337,363.049469 523.101990,363.330902 523.395691,363.400116 
	C524.038208,363.551544 524.706055,363.595276 526.106018,363.700989 
M631.745544,540.180420 
	C645.292114,537.644470 657.875793,533.136047 667.667175,522.747131 
	C664.926331,522.756775 662.341553,523.200623 659.784973,523.770569 
	C644.951355,527.077515 630.983276,525.910828 618.700989,515.912842 
	C612.374939,510.763336 610.778931,510.757172 603.329163,516.267578 
	C607.822388,523.274231 610.345276,531.058960 610.887573,539.502686 
	C611.086243,542.596191 613.466858,542.857605 616.105774,542.444885 
	C621.029785,541.674744 625.981445,541.080811 631.745544,540.180420 
M345.286957,485.198090 
	C353.997467,487.400391 362.678345,489.939056 372.900604,487.975006 
	C365.015747,479.359406 358.976318,470.698181 354.150818,461.205750 
	C352.832214,458.611816 350.853149,459.698517 349.098969,460.813110 
	C344.030182,464.033844 338.746674,466.817871 332.989227,468.585114 
	C329.413757,469.682617 325.783844,470.602661 321.449249,471.804474 
	C327.981689,479.346497 336.192413,482.247375 345.286957,485.198090 
M501.555420,327.273224 
	C492.510254,327.489319 484.280273,324.104889 475.603241,320.619019 
	C479.901215,333.558960 494.605042,343.409241 505.775604,346.548615 
	C506.674957,346.801392 507.784302,346.639465 508.718018,346.384430 
	C515.770874,344.458038 526.470032,330.368500 526.589050,322.187592 
	C518.609497,324.713257 510.852905,327.655426 501.555420,327.273224 
z"/>
</svg>