<svg id="svg" version="1.1" xmlns="http://www.w3.org/2000/svg" xmlns:xlink="http://www.w3.org/1999/xlink" width="38" height="38" viewBox="0, 0, 400,400"><g id="svgg"><path id="path0" d="M197.070 80.689 C 196.641 80.787,195.322 81.060,194.141 81.295 C 190.798 81.960,187.033 84.135,184.459 86.887 C 182.265 89.232,182.162 89.291,180.846 88.942 C 180.102 88.745,177.910 88.680,175.977 88.797 C 165.849 89.414,159.375 95.580,159.375 104.609 L 159.375 106.055 155.566 106.055 C 149.438 106.055,145.894 108.328,143.264 113.948 C 138.734 123.628,150.677 132.810,163.465 129.479 C 166.291 128.743,167.058 128.969,170.388 131.518 C 171.743 132.555,174.697 134.448,176.953 135.723 C 183.833 139.612,186.377 142.884,188.355 150.391 C 191.469 162.210,187.376 174.784,176.479 186.875 C 175.104 188.400,173.233 190.644,172.320 191.860 L 170.661 194.072 169.022 193.134 C 168.120 192.619,166.240 191.815,164.844 191.349 C 159.905 189.699,158.676 187.226,161.056 183.731 C 164.433 178.772,164.994 178.125,165.912 178.125 C 172.568 178.125,181.234 173.340,183.761 168.269 C 186.058 163.660,183.834 158.446,178.616 156.209 C 177.293 155.642,176.953 155.297,176.953 154.521 C 176.953 147.829,168.603 142.432,160.302 143.758 C 158.878 143.985,157.685 144.121,157.650 144.058 C 157.615 143.996,157.242 143.272,156.820 142.449 C 152.056 133.139,133.928 131.561,125.529 139.724 C 123.899 141.308,121.487 145.573,121.484 146.875 C 121.483 147.356,120.798 147.461,117.675 147.462 C 111.147 147.463,107.063 150.287,106.719 155.037 L 106.553 157.328 103.332 157.498 C 90.853 158.153,87.007 172.345,97.985 177.230 C 102.386 179.188,109.166 178.764,112.380 176.329 L 113.628 175.384 115.063 176.358 C 118.358 178.594,124.444 179.122,128.590 177.532 C 129.086 177.341,129.459 177.694,130.110 178.972 C 134.502 187.598,139.564 191.993,149.326 195.654 C 157.816 198.839,166.567 205.335,165.863 207.930 C 162.810 219.186,168.284 230.043,181.026 238.006 C 195.647 247.143,194.737 255.704,178.902 257.998 C 170.210 259.257,165.510 260.891,159.853 264.618 C 158.301 265.640,157.031 266.546,157.031 266.631 C 157.031 266.716,179.273 266.789,206.457 266.794 L 255.882 266.803 255.250 265.579 C 253.117 261.455,244.170 256.641,238.639 256.641 C 237.228 256.641,237.216 256.626,235.232 252.545 C 230.110 242.012,223.731 236.144,212.925 232.028 C 202.069 227.894,198.828 225.260,198.828 220.572 C 198.828 212.257,210.160 207.320,229.102 207.382 C 250.847 207.454,261.278 203.062,268.165 190.937 L 269.099 189.293 274.295 189.272 C 280.198 189.248,282.874 188.501,285.298 186.201 C 286.571 184.994,286.646 184.975,288.127 185.482 C 290.600 186.329,296.204 185.924,298.846 184.708 C 310.051 179.548,307.223 164.292,294.824 163.013 C 292.706 162.794,292.578 162.722,292.578 161.734 C 292.578 154.309,282.273 148.705,273.402 151.305 C 272.256 151.641,271.288 151.881,271.253 151.837 C 271.217 151.794,270.730 150.846,270.170 149.731 C 264.282 138.009,244.287 137.744,238.093 149.307 C 237.486 150.440,236.951 151.418,236.904 151.480 C 236.857 151.542,235.680 151.412,234.289 151.189 C 224.762 149.667,217.191 154.523,216.515 162.587 C 216.347 164.587,216.122 165.361,215.663 165.516 C 197.795 171.571,209.739 189.956,228.686 185.562 C 230.074 185.240,230.365 185.318,231.678 186.358 C 233.389 187.713,235.723 188.605,237.896 188.733 C 239.930 188.853,239.865 189.206,237.362 191.630 C 233.222 195.640,227.949 197.264,219.064 197.268 C 205.942 197.273,196.154 200.416,189.327 206.815 C 187.534 208.496,187.301 208.397,186.490 205.606 C 185.340 201.652,186.145 199.028,191.218 190.200 C 199.202 176.304,201.027 170.362,201.524 156.641 C 201.936 145.264,202.762 143.767,209.901 141.446 C 215.324 139.683,226.616 134.009,229.729 131.482 L 232.309 129.389 235.868 129.591 C 240.031 129.829,243.495 129.256,246.289 127.868 C 257.644 122.226,252.864 104.960,239.941 104.936 C 237.738 104.932,237.500 104.853,237.496 104.126 C 237.469 98.470,228.337 92.285,221.243 93.119 L 219.210 93.358 218.321 91.503 C 215.144 84.870,203.878 79.137,197.070 80.689 M206.366 127.229 C 207.930 127.347,210.143 127.244,211.284 126.999 C 213.270 126.573,213.389 126.595,214.107 127.507 C 214.519 128.031,215.490 128.851,216.264 129.330 L 217.672 130.200 216.746 130.934 C 215.437 131.974,212.386 133.512,205.236 136.738 C 201.819 138.279,198.738 139.792,198.388 140.100 C 196.671 141.611,196.868 132.500,198.674 126.887 L 199.261 125.062 201.392 126.038 C 202.756 126.663,204.547 127.091,206.366 127.229 M188.094 128.809 C 187.945 129.185,187.631 130.547,187.398 131.836 C 187.164 133.125,186.927 134.242,186.871 134.317 C 186.655 134.609,182.554 132.493,181.331 131.459 C 179.759 130.130,179.669 130.218,183.328 129.518 C 184.980 129.202,186.638 128.765,187.013 128.546 C 188.030 127.954,188.397 128.043,188.094 128.809 M154.829 175.571 C 155.522 176.100,156.653 176.770,157.341 177.059 L 158.594 177.586 156.427 179.456 C 155.235 180.485,153.724 182.276,153.069 183.437 C 151.763 185.751,151.657 185.787,148.380 185.015 C 145.191 184.265,143.081 182.870,139.704 179.281 C 136.625 176.007,136.120 175.148,137.541 175.599 C 140.632 176.580,147.549 176.402,151.172 175.247 C 153.534 174.494,153.401 174.482,154.829 175.571 M261.494 187.561 C 258.678 193.029,250.681 197.662,242.468 198.584 L 240.210 198.838 243.252 195.806 C 245.366 193.699,246.830 191.787,248.050 189.541 C 249.646 186.600,249.893 186.328,250.781 186.524 C 253.356 187.092,258.470 187.141,260.156 186.614 C 262.312 185.940,262.325 185.949,261.494 187.561 M140.541 267.969 C 121.006 268.197,122.396 267.859,122.567 272.343 C 122.687 275.488,123.226 276.923,124.530 277.573 C 125.185 277.899,140.610 278.084,181.561 278.257 C 238.790 278.499,242.642 278.582,241.674 279.550 C 241.286 279.938,212.865 280.419,188.834 280.445 C 146.412 280.491,130.859 280.855,130.863 281.802 C 130.871 283.438,135.241 295.633,137.454 300.195 C 140.774 307.041,143.409 310.244,147.889 312.876 L 149.098 313.587 148.585 316.812 C 147.914 321.029,147.056 320.703,158.812 320.703 C 170.663 320.703,170.385 320.783,170.853 317.253 C 171.015 316.029,171.456 314.872,171.985 314.280 L 172.852 313.312 203.061 313.199 L 233.270 313.086 234.188 314.153 C 234.709 314.758,235.225 316.015,235.382 317.058 C 235.551 318.185,236.010 319.248,236.568 319.806 L 237.478 320.716 247.547 320.612 L 257.617 320.508 257.594 319.336 C 257.582 318.691,257.436 317.090,257.269 315.778 L 256.967 313.392 259.082 312.198 C 265.293 308.693,272.714 294.571,275.807 280.371 L 276.296 278.125 278.480 278.119 C 282.411 278.109,283.528 276.770,283.572 272.016 C 283.588 270.229,283.407 269.387,282.861 268.713 L 282.129 267.809 219.678 267.791 C 185.330 267.781,149.718 267.861,140.541 267.969 " stroke="none" fill="#243c51" fill-rule="evenodd"></path><path id="path1" d="M0.000 200.000 L 0.000 400.000 200.000 400.000 L 400.000 400.000 400.000 200.000 L 400.000 0.000 200.000 0.000 L 0.000 0.000 0.000 200.000 M206.687 81.733 C 211.809 83.606,216.042 87.059,218.151 91.085 L 219.240 93.164 222.999 93.164 C 229.987 93.164,235.864 97.292,237.459 103.320 L 237.873 104.883 240.518 104.908 C 250.916 105.009,256.727 117.950,249.733 125.427 C 246.660 128.712,241.068 130.321,234.976 129.671 L 232.258 129.381 230.094 131.315 C 227.430 133.695,216.429 139.362,210.772 141.267 C 202.604 144.017,201.984 145.099,201.527 157.384 C 201.023 170.952,199.283 176.415,190.700 191.374 C 186.276 199.085,185.384 202.703,186.946 206.607 L 187.564 208.152 190.524 205.671 C 197.421 199.891,206.003 197.310,219.088 197.081 C 228.769 196.911,233.306 195.499,237.576 191.326 L 239.648 189.300 237.212 188.804 C 234.433 188.237,232.671 187.435,231.214 186.074 C 230.344 185.261,230.049 185.187,229.114 185.542 C 225.496 186.918,217.980 186.173,213.477 183.992 C 203.902 179.356,204.182 169.711,213.998 166.040 L 216.307 165.176 216.495 162.373 C 217.044 154.166,225.938 149.047,235.814 151.255 C 236.964 151.512,237.090 151.437,237.474 150.278 C 241.604 137.794,264.434 137.554,270.455 149.930 C 271.172 151.404,271.402 151.590,272.259 151.391 C 283.065 148.887,292.071 153.305,292.670 161.403 L 292.773 162.799 295.042 163.005 C 302.434 163.677,307.644 170.788,305.683 177.530 C 303.926 183.576,295.956 187.553,289.126 185.793 L 286.649 185.155 285.033 186.538 C 282.163 188.995,275.882 190.254,270.898 189.372 L 269.336 189.095 267.852 191.624 C 264.300 197.676,257.979 202.785,251.227 205.060 C 245.879 206.861,243.981 207.079,230.664 207.417 C 216.499 207.777,213.829 208.145,208.134 210.523 C 196.375 215.435,195.712 224.830,206.800 229.440 C 208.109 229.984,211.004 231.143,213.235 232.016 C 223.789 236.143,230.484 242.325,235.391 252.476 L 237.185 256.187 239.198 256.458 C 243.807 257.077,249.901 259.687,252.690 262.235 C 253.799 263.248,255.859 265.996,255.859 266.462 C 255.859 266.643,233.535 266.836,206.250 266.892 C 178.965 266.947,156.642 266.904,156.644 266.797 C 156.645 266.689,158.032 265.677,159.725 264.546 C 165.425 260.740,169.746 259.242,179.051 257.846 C 195.181 255.427,195.442 247.097,179.695 237.281 C 169.229 230.757,165.439 224.276,165.433 212.891 L 165.430 206.445 162.695 203.677 C 159.419 200.359,156.622 198.669,150.495 196.307 C 139.572 192.097,135.912 189.149,130.822 180.463 L 129.102 177.527 127.539 178.054 C 124.667 179.021,118.880 178.524,116.055 177.067 L 113.672 175.838 111.263 177.079 C 106.211 179.683,98.151 178.660,94.264 174.921 C 87.578 168.489,93.539 157.404,103.760 157.265 C 106.454 157.229,106.595 157.183,106.399 156.400 C 105.233 151.748,111.179 147.141,118.132 147.310 L 121.225 147.385 121.700 145.777 C 125.675 132.314,150.600 129.972,156.972 142.462 L 157.755 143.998 160.370 143.607 C 168.896 142.333,177.344 148.121,177.344 155.236 C 177.344 155.493,177.979 155.932,178.756 156.213 C 183.625 157.974,186.095 163.784,183.909 168.334 C 181.468 173.412,173.064 178.087,166.319 178.118 C 165.134 178.124,164.758 178.324,164.293 179.199 C 163.979 179.790,162.924 181.328,161.949 182.617 C 158.507 187.168,159.430 189.499,165.430 191.407 C 166.289 191.680,167.845 192.331,168.886 192.853 C 169.928 193.375,170.820 193.747,170.868 193.679 C 170.917 193.610,171.339 193.000,171.807 192.322 C 172.274 191.644,174.252 189.271,176.201 187.048 C 187.851 173.768,191.339 162.982,188.107 150.241 C 186.058 142.162,184.021 139.831,174.103 134.211 C 173.073 133.627,171.312 132.402,170.191 131.489 C 167.386 129.204,166.155 128.823,163.833 129.522 C 159.879 130.712,152.564 130.031,148.827 128.124 C 136.823 122.000,142.358 105.354,156.208 105.927 L 159.279 106.055 159.484 103.049 C 160.102 93.987,167.390 88.408,178.190 88.728 L 182.496 88.855 183.924 87.236 C 189.300 81.140,198.792 78.845,206.687 81.733 M198.668 127.325 C 197.478 131.438,196.924 137.164,197.507 139.338 L 197.738 140.199 199.553 139.267 C 200.551 138.754,204.173 137.070,207.602 135.526 C 215.653 131.900,218.284 130.248,216.797 129.753 C 216.506 129.656,215.552 128.926,214.677 128.130 C 213.208 126.795,212.981 126.713,211.719 127.054 C 209.192 127.736,203.496 127.236,201.276 126.138 L 199.295 125.157 198.668 127.325 M184.766 129.325 C 183.369 129.710,181.716 130.037,181.092 130.051 C 179.455 130.090,180.510 131.155,184.005 132.992 L 186.696 134.406 186.925 133.316 C 187.051 132.717,187.320 131.490,187.523 130.589 C 187.725 129.688,187.891 128.853,187.891 128.733 C 187.891 128.464,187.873 128.468,184.766 129.325 M150.781 175.460 C 148.042 176.283,141.734 176.601,138.752 176.067 C 136.639 175.688,136.837 176.188,140.236 179.823 C 142.735 182.494,146.089 184.542,148.633 184.950 C 149.492 185.088,150.565 185.276,151.018 185.367 C 151.669 185.499,151.989 185.205,152.549 183.963 C 152.938 183.099,154.461 181.256,155.933 179.868 C 157.884 178.027,158.403 177.344,157.850 177.344 C 157.432 177.344,156.285 176.729,155.300 175.977 C 154.315 175.225,153.466 174.629,153.415 174.654 C 153.363 174.678,152.178 175.041,150.781 175.460 M260.548 186.620 C 259.165 187.197,252.410 187.145,250.574 186.542 C 249.923 186.328,249.659 186.557,249.104 187.814 C 247.896 190.552,245.482 193.896,243.057 196.191 L 240.683 198.438 242.119 198.431 C 248.710 198.400,256.465 194.335,260.368 188.864 C 262.440 185.960,262.451 185.824,260.548 186.620 M282.781 268.526 C 283.846 269.490,284.038 270.688,283.613 273.707 C 283.115 277.246,282.177 278.125,278.900 278.125 L 276.593 278.125 276.148 279.785 C 270.953 299.184,264.318 311.048,257.369 313.364 C 257.021 313.480,257.047 314.285,257.477 316.662 C 257.790 318.391,257.979 320.007,257.897 320.254 C 257.789 320.577,254.853 320.703,247.428 320.703 C 235.496 320.703,235.986 320.857,235.202 316.870 C 234.433 312.961,237.279 313.281,203.265 313.281 C 186.895 313.281,173.217 313.390,172.869 313.524 C 172.020 313.850,171.247 315.441,170.902 317.578 C 170.379 320.816,170.819 320.703,158.675 320.703 L 147.941 320.703 148.165 319.043 C 148.289 318.130,148.501 316.504,148.636 315.430 L 148.882 313.477 147.260 312.567 C 143.418 310.413,140.201 306.407,137.115 299.934 C 134.967 295.427,130.179 281.410,130.633 280.956 C 130.793 280.795,152.047 280.547,177.865 280.404 C 224.657 280.146,241.406 279.858,241.406 279.314 C 241.406 278.729,227.831 278.512,177.344 278.290 C 144.839 278.147,125.205 277.918,124.562 277.676 C 122.311 276.829,121.437 270.691,123.302 268.826 L 124.435 267.692 203.237 267.774 C 277.138 267.850,282.085 267.897,282.781 268.526 " stroke="none" fill="#fbfbfa" fill-rule="evenodd"></path><path id="path2" d="M291.309 186.213 C 291.792 186.306,292.583 186.306,293.066 186.213 C 293.550 186.120,293.154 186.044,292.188 186.044 C 291.221 186.044,290.825 186.120,291.309 186.213 M217.487 197.158 C 218.190 197.245,219.244 197.243,219.831 197.154 C 220.418 197.065,219.844 196.994,218.555 196.996 C 217.266 196.998,216.785 197.071,217.487 197.158 M171.978 267.858 C 172.572 267.948,173.451 267.946,173.931 267.853 C 174.412 267.760,173.926 267.687,172.852 267.690 C 171.777 267.693,171.384 267.769,171.978 267.858 M253.613 267.847 C 253.989 267.946,254.604 267.946,254.980 267.847 C 255.356 267.749,255.049 267.669,254.297 267.669 C 253.545 267.669,253.237 267.749,253.613 267.847 M201.289 278.416 C 203.179 278.488,206.167 278.488,207.929 278.415 C 209.691 278.343,208.145 278.284,204.492 278.285 C 200.840 278.285,199.398 278.344,201.289 278.416 M233.691 278.795 C 234.282 278.885,235.249 278.885,235.840 278.795 C 236.431 278.706,235.947 278.633,234.766 278.633 C 233.584 278.633,233.101 278.706,233.691 278.795 M233.691 279.957 C 234.067 280.055,234.683 280.055,235.059 279.957 C 235.435 279.859,235.127 279.778,234.375 279.778 C 233.623 279.778,233.315 279.859,233.691 279.957 M203.234 280.366 C 204.261 280.446,205.843 280.445,206.750 280.364 C 207.657 280.282,206.816 280.216,204.883 280.217 C 202.949 280.218,202.207 280.285,203.234 280.366 M137.616 280.759 C 139.290 280.833,141.927 280.832,143.475 280.758 C 145.023 280.684,143.652 280.624,140.430 280.625 C 137.207 280.626,135.941 280.686,137.616 280.759 M262.671 309.473 L 261.523 310.742 262.793 309.595 C 263.491 308.964,264.063 308.393,264.063 308.325 C 264.063 308.024,263.740 308.289,262.671 309.473 " stroke="none" fill="#a0a8b1" fill-rule="evenodd"></path><path id="path3" d="M222.759 186.218 C 223.353 186.308,224.232 186.305,224.712 186.212 C 225.193 186.120,224.707 186.046,223.633 186.049 C 222.559 186.052,222.166 186.128,222.759 186.218 M127.846 267.867 C 129.089 267.945,131.023 267.944,132.143 267.866 C 133.263 267.787,132.246 267.723,129.883 267.724 C 127.520 267.725,126.603 267.789,127.846 267.867 M142.094 267.854 C 142.580 267.948,143.283 267.944,143.657 267.847 C 144.030 267.749,143.633 267.672,142.773 267.677 C 141.914 267.681,141.608 267.761,142.094 267.854 M166.509 267.858 C 167.103 267.948,167.982 267.946,168.462 267.853 C 168.943 267.760,168.457 267.687,167.383 267.690 C 166.309 267.693,165.916 267.769,166.509 267.858 M278.034 267.861 C 278.736 267.948,279.791 267.946,280.378 267.857 C 280.965 267.768,280.391 267.697,279.102 267.699 C 277.813 267.701,277.332 267.774,278.034 267.861 M213.184 278.408 C 213.882 278.494,215.024 278.494,215.723 278.408 C 216.421 278.321,215.850 278.250,214.453 278.250 C 213.057 278.250,212.485 278.321,213.184 278.408 M211.035 280.363 C 211.841 280.447,213.159 280.447,213.965 280.363 C 214.771 280.278,214.111 280.209,212.500 280.209 C 210.889 280.209,210.229 280.278,211.035 280.363 M150.694 280.755 C 151.613 280.838,153.019 280.837,153.819 280.753 C 154.619 280.669,153.867 280.601,152.148 280.603 C 150.430 280.604,149.775 280.673,150.694 280.755 M224.316 313.178 C 225.337 313.258,227.007 313.258,228.027 313.178 C 229.048 313.097,228.213 313.031,226.172 313.031 C 224.131 313.031,223.296 313.097,224.316 313.178 M230.566 313.160 C 230.942 313.258,231.558 313.258,231.934 313.160 C 232.310 313.062,232.002 312.981,231.250 312.981 C 230.498 312.981,230.190 313.062,230.566 313.160 " stroke="none" fill="#7d848f" fill-rule="evenodd"></path><path id="path4" d="M135.645 267.847 C 136.021 267.946,136.636 267.946,137.012 267.847 C 137.388 267.749,137.080 267.669,136.328 267.669 C 135.576 267.669,135.269 267.749,135.645 267.847 " stroke="none" fill="#828c94" fill-rule="evenodd"></path></g></svg>